<svg width="33" height="53" viewBox="0 0 33 53" fill="none" xmlns="http://www.w3.org/2000/svg">
<path d="M0.177734 33.538C0.515096 31.8512 0.852457 30.1644 1.15271 28.4776C2.65734 19.9919 4.1541 11.505 5.64299 3.01695C5.78131 2.22078 5.88252 1.41786 6.06132 0.631806C6.11192 0.399027 6.36495 0.0346719 6.537 0.0312982C8.16983 -0.0159324 9.80603 0.00431384 11.5974 0.00431384C9.91062 9.67647 8.22381 19.2103 6.537 28.8555H20.3452C21.2864 28.8555 21.2932 28.8791 21.1245 29.8304C20.912 30.9943 20.6859 32.1582 20.5308 33.3323C20.4329 34.0812 20.1462 34.3443 19.3432 34.3443C14.1108 34.3039 8.88504 34.3443 3.64244 34.3174C2.48866 34.3174 1.33826 34.2398 0.184483 34.1959L0.177734 33.538Z" fill="#333333"/>
<path d="M21.607 52.9599C23.2938 43.2878 24.9806 33.754 26.6674 24.1223H11.9281C12.2385 22.3005 12.5286 20.5969 12.8255 18.8392H32.9424C32.7467 19.9896 32.5746 21.0692 32.3857 22.1453C30.6179 32.1695 28.8547 42.1947 27.0959 52.2211C26.998 52.7845 26.8226 52.9903 26.2322 52.9734C24.7546 52.9296 23.2736 52.9599 21.607 52.9599Z" fill="#EE1E3A"/>
</svg>
