<?xml version="1.0" encoding="utf-8"?>
<!-- Generator: Adobe Illustrator 16.0.0, SVG Export Plug-In . SVG Version: 6.00 Build 0)  -->
<!DOCTYPE svg PUBLIC "-//W3C//DTD SVG 1.1//EN" "http://www.w3.org/Graphics/SVG/1.1/DTD/svg11.dtd">
<svg version="1.1" id="Layer_1" xmlns="http://www.w3.org/2000/svg" xmlns:xlink="http://www.w3.org/1999/xlink" x="0px" y="0px"
	 width="1024px" height="226.086px" viewBox="0 398.423 1024 226.086" enable-background="new 0 398.423 1024 226.086"
	 xml:space="preserve">
<title>panion logo 2</title>
<g id="Layer_2">
	<g id="Layer_1-2">
		<path fill="#161fd1" d="M249.475,426.039c-28.914-29.012-73.355-35.803-109.614-16.751
			c-45.675-24.147-102.277-6.696-126.425,38.979C-5.738,484.533,0.953,529.06,29.938,558.089l65.974,66.146l25.04-25.04
			c3.28-3.512,3.091-9.018-0.421-12.297c-3.343-3.122-8.533-3.122-11.876,0l-12.743,12.708l-53.676-53.848
			c-29.736-29.739-29.732-77.953,0.007-107.688c29.739-29.736,77.953-29.733,107.688,0.007c29.733,29.736,29.733,77.945,0,107.682
			l-10.276,10.276l0,0l-10.174-10.003c-25.743-25.774-29.646-66.163-9.317-96.392c2.585-4.051,1.397-9.43-2.653-12.015
			c-3.906-2.492-9.08-1.487-11.768,2.287c-24.987,37.144-20.193,86.776,11.441,118.451l66.145,66.146l66.146-66.146
			c36.528-36.532,36.528-95.758,0-132.29V426.039z M151.884,568.434L151.884,568.434l10.276-10.275
			c36.472-36.556,36.472-95.735,0-132.291c-1.747-1.747-3.425-3.425-5.412-4.967c39.431-14.622,83.25,5.49,97.872,44.922
			c10.327,27.85,3.518,59.163-17.443,80.209l-53.848,53.849L151.884,568.434z"/>
	</g>
</g>
</svg>
